<svg xmlns="http://www.w3.org/2000/svg" viewBox="0 0 64 64">

  <!-- White background -->
  <rect width="64" height="64" rx="10" fill="#ffffff"/>

  <!-- Open book pages (small, behind leaf) -->
  <g transform="translate(32, 54) scale(0.52)">
    <path d="M0,0 L-22,-32 L-17,-35 Z" fill="#2C4A6E"/>
    <path d="M0,0 L-28,-22 L-22,-32 Z" fill="#3A5C7A"/>
    <path d="M0,0 L-30,-10 L-28,-22 Z" fill="#4A6E8A"/>
    <path d="M0,0 L 22,-32 L 17,-35 Z" fill="#2C4A6E"/>
    <path d="M0,0 L 28,-22 L 22,-32 Z" fill="#3A5C7A"/>
    <path d="M0,0 L 30,-10 L 28,-22 Z" fill="#4A6E8A"/>
    <line x1="0" y1="-35" x2="0" y2="0" stroke="#1E3A56" stroke-width="1.2"/>
  </g>

  <!-- Maple leaf -->
  <g transform="translate(32, 32) scale(0.29)">
    <path fill="#C1273A" d="
      M 0,-58
      C 1,-50 4,-44 3,-37
      C 7,-39 13,-44 16,-41
      C 13,-34 7,-29 9,-22
      C 15,-24 22,-28 25,-23
      C 21,-16 11,-11 12,-4
      C 18,-7 28,-7 31,-2
      C 25,4  11,7  9,13
      C 14,10 20,13 20,17
      C 14,22 5,22  5,28
      C 5,33 7,38 7,43
      L -7,43
      C -7,38 -5,33 -5,28
      C -5,22 -14,22 -20,17
      C -20,13 -14,10 -9,13
      C -11,7  -25,4  -31,-2
      C -28,-7 -18,-7 -12,-4
      C -11,-11 -21,-16 -25,-23
      C -22,-28 -15,-24 -9,-22
      C -7,-29 -13,-34 -16,-41
      C -13,-44 -7,-39 -3,-37
      C -4,-44 -1,-50 0,-58
      Z
    "/>
  </g>

</svg>
